# xmcd
#
# Track frame offsets:
#	150
#	14037
#	29267
#	47179
#	64703
#	78963
#	95768
#	110743
#	128773
#	142478
#	159700
#	176382
#	195364
#	227174
#
# Disc length: 3479 seconds
#
# Revision: 0
# Processed by: cddbd v1.5.1PL2 Copyright (c) Steve Scherf et al.
# Submitted via: audiograbber 1.83.01
#
DISCID=c50d950e
DTITLE=Various Artist - ERG Nu Country Traxx Vol. 21
DYEAR=2001
DGENRE=Country
TTITLE0=John Michael Montgomery - That's What I Like About You
TTITLE1=Kenny Chesney - Don't Happen Twice
TTITLE2=Terri Clark - No Fear
TTITLE3=Phil Vassar - Rose Bouquet
TTITLE4=Eddy Raven - Cowboys Don't Cry
TTITLE5=Dolly Parton - A Tender Lie
TTITLE6=Clay Davidson - Sometimes
TTITLE7=Leslie Satcher - Love Letters From Old Mexico
TTITLE8=Meredith Edwards - A Rose Is A Rose
TTITLE9=Nickel Creek - When You  Come Back Down
TTITLE10=James/Dean - Fire Red Thunderbird
TTITLE11=Ricky Lynn Gregg - Careful What You Wish For
TTITLE12=Charlie Daniels Band - Sidewinder
TTITLE13=Toy Caldwell - Can't See You
EXTD=
EXTT0=
EXTT1=
EXTT2=
EXTT3=
EXTT4=
EXTT5=
EXTT6=
EXTT7=
EXTT8=
EXTT9=
EXTT10=
EXTT11=
EXTT12=
EXTT13=
PLAYORDER=
